<?xml version="1.0" encoding="UTF-8" standalone="no"?>
<svg
   viewBox="0 0 24 24"
   version="1.1"
   id="svg1"
   sodipodi:docname="document-logo.svg"
   xml:space="preserve"
   inkscape:version="1.3.2 (091e20e, 2023-11-25, custom)"
   xmlns:inkscape="http://www.inkscape.org/namespaces/inkscape"
   xmlns:sodipodi="http://sodipodi.sourceforge.net/DTD/sodipodi-0.dtd"
   xmlns="http://www.w3.org/2000/svg"
   xmlns:svg="http://www.w3.org/2000/svg"><defs
     id="defs1" /><sodipodi:namedview
     id="namedview1"
     pagecolor="#ffffff"
     bordercolor="#666666"
     borderopacity="1.0"
     inkscape:showpageshadow="2"
     inkscape:pageopacity="0.0"
     inkscape:pagecheckerboard="0"
     inkscape:deskcolor="#d1d1d1"
     inkscape:zoom="2.1640625"
     inkscape:cx="-207.01805"
     inkscape:cy="-29.805054"
     inkscape:window-width="2560"
     inkscape:window-height="1009"
     inkscape:window-x="1912"
     inkscape:window-y="-8"
     inkscape:window-maximized="1"
     inkscape:current-layer="svg1" /><path
     d="M 4.8,0 C 3.4745166,0 2.4,1.0745166 2.4,2.4 v 19.2 c 0,1.325483 1.0745166,2.4 2.4,2.4 h 14.4 c 1.325483,0 2.4,-1.074517 2.4,-2.4 V 7.2 L 14.4,0 Z m 0,2.4 h 8.4 L 16.091303,5.3963899 19.2,8.4 V 21.6 H 4.8 Z"
     id="path1"
     sodipodi:nodetypes="ssssssccsccccccc"
     style="display:inline;stroke-width:1.2" /><g
     id="g4"
     transform="matrix(1.1478679,0,0,1.1478679,-1.7744147,-2.6380406)"><path
       d="m 16.091303,9.6434463 c 2.61e-4,0.3758807 -0.301815,0.6807317 -0.674535,0.6807317 -0.372906,2.66e-4 -0.675272,-0.304663 -0.675011,-0.6807317 0,-0.3758818 0.30229,-0.6805195 0.675011,-0.6802541 0.372535,-2e-7 0.674534,0.3045598 0.674535,0.6802541 M 8.6595039,10.553472 c -5.208e-4,0.277459 -0.2235359,0.50218 -0.4986306,0.502445 -0.2754648,0 -0.4988467,-0.225087 -0.4991084,-0.50292 2.595e-4,-0.277834 0.2236421,-0.502924 0.4991084,-0.502924 0.2754635,2.66e-4 0.4986311,0.225567 0.4986306,0.503399"
       id="path3"
       style="display:inline;fill:#767677;fill-opacity:1;stroke-width:0.476703"
       sodipodi:nodetypes="cccccccccc" /><path
       d="m 12.156597,11.276632 c 1.796693,0 3.365521,0.65785 4.179732,1.632232 -0.301921,-0.872458 -0.86704,-1.629781 -1.617454,-2.167571 C 13.97138,10.205917 13.075087,9.9178762 12.155643,9.9175491 11.236363,9.917976 10.340252,10.206012 9.5928888,10.741293 8.8422978,11.279011 8.277007,12.036342 7.9749589,12.908864 8.7915526,11.936387 10.36038,11.276632 12.156597,11.276632 m 4.77e-4,6.337766 c -1.796216,0 -3.3655214,-0.658328 -4.1797324,-1.632708 0.3020488,0.872521 0.8673397,1.629851 1.6179304,2.167568 0.747117,0.535524 1.643056,0.823891 2.562278,0.824695 0.919495,-4.66e-4 1.815793,-0.288675 2.563231,-0.82422 0.750414,-0.537789 1.315532,-1.29511 1.617454,-2.167567 -0.816117,0.974381 -2.384945,1.632708 -4.181638,1.632708 z"
       id="path2"
       style="display:inline;fill:#f37726;fill-opacity:1;stroke-width:0.476703"
       sodipodi:nodetypes="ccccccccccccccc" /><path
       d="m 9.6915652,19.546472 c 9e-7,0.473445 -0.3804617,0.857323 -0.8499592,0.85759 -0.4696849,1e-6 -0.8504399,-0.383956 -0.8504391,-0.85759 1.4e-6,-0.473633 0.3807557,-0.857587 0.8504391,-0.857586 0.469496,2.67e-4 0.8499579,0.384142 0.8499592,0.857586"
       id="path4"
       style="display:inline;fill:#9e9e9e;fill-opacity:1;stroke-width:0.476703"
       sodipodi:nodetypes="ccscc" /></g></svg>
